<svg width="476" height="487" viewBox="0 0 476 487" fill="none" xmlns="http://www.w3.org/2000/svg">
<ellipse cx="238" cy="252.297" rx="224.747" ry="220.828" fill="#C5EBAA"/>
<path d="M475 252.297C475 380.88 368.908 485.147 238 485.147C107.092 485.147 1 380.88 1 252.297C1 123.714 107.092 19.4475 238 19.4475C368.908 19.4475 475 123.714 475 252.297Z" stroke="#F2C18D" stroke-width="2"/>
<circle cx="28.6925" cy="300.66" r="2.5" fill="#89D27C"/>
<circle cx="36.6925" cy="300.66" r="2.5" fill="#89D27C"/>
<circle cx="44.6925" cy="300.66" r="2.5" fill="#89D27C"/>
<circle cx="52.6925" cy="300.66" r="2.5" fill="#89D27C"/>
<circle cx="60.6925" cy="300.66" r="2.5" fill="#89D27C"/>
<circle cx="68.6925" cy="300.66" r="2.5" fill="#89D27C"/>
<circle cx="76.6925" cy="300.66" r="2.5" fill="#89D27C"/>
<circle cx="84.6925" cy="300.66" r="2.5" fill="#89D27C"/>
<circle cx="92.6925" cy="300.66" r="2.5" fill="#89D27C"/>
<circle cx="100.693" cy="300.66" r="2.5" fill="#89D27C"/>
<circle cx="108.693" cy="300.66" r="2.5" fill="#89D27C"/>
<circle cx="116.693" cy="300.66" r="2.5" fill="#89D27C"/>
<circle cx="124.693" cy="300.66" r="2.5" fill="#89D27C"/>
<circle cx="132.693" cy="300.66" r="2.5" fill="#89D27C"/>
<circle cx="140.693" cy="300.66" r="2.5" fill="#89D27C"/>
<circle cx="148.693" cy="300.66" r="2.5" fill="#89D27C"/>
<circle cx="28.6925" cy="308.66" r="2.5" fill="#89D27C"/>
<circle cx="36.6925" cy="308.66" r="2.5" fill="#89D27C"/>
<circle cx="44.6925" cy="308.66" r="2.5" fill="#89D27C"/>
<circle cx="52.6925" cy="308.66" r="2.5" fill="#89D27C"/>
<circle cx="60.6925" cy="308.66" r="2.5" fill="#89D27C"/>
<circle cx="68.6925" cy="308.66" r="2.5" fill="#89D27C"/>
<circle cx="76.6925" cy="308.66" r="2.5" fill="#89D27C"/>
<circle cx="84.6925" cy="308.66" r="2.5" fill="#89D27C"/>
<circle cx="92.6925" cy="308.66" r="2.5" fill="#89D27C"/>
<circle cx="100.693" cy="308.66" r="2.5" fill="#89D27C"/>
<circle cx="108.693" cy="308.66" r="2.5" fill="#89D27C"/>
<circle cx="116.693" cy="308.66" r="2.5" fill="#89D27C"/>
<circle cx="124.693" cy="308.66" r="2.5" fill="#89D27C"/>
<circle cx="132.693" cy="308.66" r="2.5" fill="#89D27C"/>
<circle cx="140.693" cy="308.66" r="2.5" fill="#89D27C"/>
<circle cx="148.693" cy="308.66" r="2.5" fill="#89D27C"/>
<circle cx="28.6925" cy="316.66" r="2.5" fill="#89D27C"/>
<circle cx="36.6925" cy="316.66" r="2.5" fill="#89D27C"/>
<circle cx="44.6925" cy="316.66" r="2.5" fill="#89D27C"/>
<circle cx="52.6925" cy="316.66" r="2.5" fill="#89D27C"/>
<circle cx="60.6925" cy="316.66" r="2.5" fill="#89D27C"/>
<circle cx="68.6925" cy="316.66" r="2.5" fill="#89D27C"/>
<circle cx="76.6925" cy="316.66" r="2.5" fill="#89D27C"/>
<circle cx="84.6925" cy="316.66" r="2.5" fill="#89D27C"/>
<circle cx="92.6925" cy="316.66" r="2.5" fill="#89D27C"/>
<circle cx="100.693" cy="316.66" r="2.5" fill="#89D27C"/>
<circle cx="108.693" cy="316.66" r="2.5" fill="#89D27C"/>
<circle cx="116.693" cy="316.66" r="2.5" fill="#89D27C"/>
<circle cx="124.693" cy="316.66" r="2.5" fill="#89D27C"/>
<circle cx="132.693" cy="316.66" r="2.5" fill="#89D27C"/>
<circle cx="140.693" cy="316.66" r="2.5" fill="#89D27C"/>
<circle cx="148.693" cy="316.66" r="2.5" fill="#89D27C"/>
<circle cx="28.6925" cy="324.66" r="2.5" fill="#89D27C"/>
<circle cx="36.6925" cy="324.66" r="2.5" fill="#89D27C"/>
<circle cx="44.6925" cy="324.66" r="2.5" fill="#89D27C"/>
<circle cx="52.6925" cy="324.66" r="2.5" fill="#89D27C"/>
<circle cx="60.6925" cy="324.66" r="2.5" fill="#89D27C"/>
<circle cx="68.6925" cy="324.66" r="2.5" fill="#89D27C"/>
<circle cx="76.6925" cy="324.66" r="2.5" fill="#89D27C"/>
<circle cx="84.6925" cy="324.66" r="2.5" fill="#89D27C"/>
<circle cx="92.6925" cy="324.66" r="2.5" fill="#89D27C"/>
<circle cx="100.693" cy="324.66" r="2.5" fill="#89D27C"/>
<circle cx="108.693" cy="324.66" r="2.5" fill="#89D27C"/>
<circle cx="116.693" cy="324.66" r="2.5" fill="#89D27C"/>
<circle cx="124.693" cy="324.66" r="2.5" fill="#89D27C"/>
<circle cx="132.693" cy="324.66" r="2.5" fill="#89D27C"/>
<circle cx="140.693" cy="324.66" r="2.5" fill="#89D27C"/>
<circle cx="148.693" cy="324.66" r="2.5" fill="#89D27C"/>
<circle cx="28.6925" cy="332.66" r="2.5" fill="#89D27C"/>
<circle cx="36.6925" cy="332.66" r="2.5" fill="#89D27C"/>
<circle cx="44.6925" cy="332.66" r="2.5" fill="#89D27C"/>
<circle cx="52.6925" cy="332.66" r="2.5" fill="#89D27C"/>
<circle cx="60.6925" cy="332.66" r="2.5" fill="#89D27C"/>
<circle cx="68.6925" cy="332.66" r="2.5" fill="#89D27C"/>
<circle cx="76.6925" cy="332.66" r="2.5" fill="#89D27C"/>
<circle cx="84.6925" cy="332.66" r="2.5" fill="#89D27C"/>
<circle cx="92.6925" cy="332.66" r="2.5" fill="#89D27C"/>
<circle cx="100.693" cy="332.66" r="2.5" fill="#89D27C"/>
<circle cx="108.693" cy="332.66" r="2.5" fill="#89D27C"/>
<circle cx="116.693" cy="332.66" r="2.5" fill="#89D27C"/>
<circle cx="124.693" cy="332.66" r="2.5" fill="#89D27C"/>
<circle cx="132.693" cy="332.66" r="2.5" fill="#89D27C"/>
<circle cx="140.693" cy="332.66" r="2.5" fill="#89D27C"/>
<circle cx="148.693" cy="332.66" r="2.5" fill="#89D27C"/>
<circle cx="28.6925" cy="340.66" r="2.5" fill="#89D27C"/>
<circle cx="36.6925" cy="340.66" r="2.5" fill="#89D27C"/>
<circle cx="44.6925" cy="340.66" r="2.5" fill="#89D27C"/>
<circle cx="52.6925" cy="340.66" r="2.5" fill="#89D27C"/>
<circle cx="60.6925" cy="340.66" r="2.5" fill="#89D27C"/>
<circle cx="68.6925" cy="340.66" r="2.5" fill="#89D27C"/>
<circle cx="76.6925" cy="340.66" r="2.5" fill="#89D27C"/>
<circle cx="84.6925" cy="340.66" r="2.5" fill="#89D27C"/>
<circle cx="92.6925" cy="340.66" r="2.5" fill="#89D27C"/>
<circle cx="100.693" cy="340.66" r="2.5" fill="#89D27C"/>
<circle cx="108.693" cy="340.66" r="2.5" fill="#89D27C"/>
<circle cx="116.693" cy="340.66" r="2.5" fill="#89D27C"/>
<circle cx="124.693" cy="340.66" r="2.5" fill="#89D27C"/>
<circle cx="132.693" cy="340.66" r="2.5" fill="#89D27C"/>
<circle cx="140.693" cy="340.66" r="2.5" fill="#89D27C"/>
<circle cx="148.693" cy="340.66" r="2.5" fill="#89D27C"/>
<circle cx="28.6925" cy="348.66" r="2.5" fill="#89D27C"/>
<circle cx="36.6925" cy="348.66" r="2.5" fill="#89D27C"/>
<circle cx="44.6925" cy="348.66" r="2.5" fill="#89D27C"/>
<circle cx="52.6925" cy="348.66" r="2.5" fill="#89D27C"/>
<circle cx="60.6925" cy="348.66" r="2.5" fill="#89D27C"/>
<circle cx="68.6925" cy="348.66" r="2.5" fill="#89D27C"/>
<circle cx="76.6925" cy="348.66" r="2.5" fill="#89D27C"/>
<circle cx="84.6925" cy="348.66" r="2.5" fill="#89D27C"/>
<circle cx="92.6925" cy="348.66" r="2.5" fill="#89D27C"/>
<circle cx="100.693" cy="348.66" r="2.5" fill="#89D27C"/>
<circle cx="108.693" cy="348.66" r="2.5" fill="#89D27C"/>
<circle cx="116.693" cy="348.66" r="2.5" fill="#89D27C"/>
<circle cx="124.693" cy="348.66" r="2.5" fill="#89D27C"/>
<circle cx="132.693" cy="348.66" r="2.5" fill="#89D27C"/>
<circle cx="140.693" cy="348.66" r="2.5" fill="#89D27C"/>
<circle cx="148.693" cy="348.66" r="2.5" fill="#89D27C"/>
<circle cx="28.6925" cy="356.66" r="2.5" fill="#89D27C"/>
<circle cx="36.6925" cy="356.66" r="2.5" fill="#89D27C"/>
<circle cx="44.6925" cy="356.66" r="2.5" fill="#89D27C"/>
<circle cx="52.6925" cy="356.66" r="2.5" fill="#89D27C"/>
<circle cx="60.6925" cy="356.66" r="2.5" fill="#89D27C"/>
<circle cx="68.6925" cy="356.66" r="2.5" fill="#89D27C"/>
<circle cx="76.6925" cy="356.66" r="2.5" fill="#89D27C"/>
<circle cx="84.6925" cy="356.66" r="2.5" fill="#89D27C"/>
<circle cx="92.6925" cy="356.66" r="2.5" fill="#89D27C"/>
<circle cx="100.693" cy="356.66" r="2.5" fill="#89D27C"/>
<circle cx="108.693" cy="356.66" r="2.5" fill="#89D27C"/>
<circle cx="116.693" cy="356.66" r="2.5" fill="#89D27C"/>
<circle cx="124.693" cy="356.66" r="2.5" fill="#89D27C"/>
<circle cx="132.693" cy="356.66" r="2.5" fill="#89D27C"/>
<circle cx="140.693" cy="356.66" r="2.5" fill="#89D27C"/>
<circle cx="148.693" cy="356.66" r="2.5" fill="#89D27C"/>
<circle cx="28.6925" cy="364.66" r="2.5" fill="#89D27C"/>
<circle cx="36.6925" cy="364.66" r="2.5" fill="#89D27C"/>
<circle cx="44.6925" cy="364.66" r="2.5" fill="#89D27C"/>
<circle cx="52.6925" cy="364.66" r="2.5" fill="#89D27C"/>
<circle cx="60.6925" cy="364.66" r="2.5" fill="#89D27C"/>
<circle cx="68.6925" cy="364.66" r="2.5" fill="#89D27C"/>
<circle cx="76.6925" cy="364.66" r="2.5" fill="#89D27C"/>
<circle cx="84.6925" cy="364.66" r="2.5" fill="#89D27C"/>
<circle cx="92.6925" cy="364.66" r="2.5" fill="#89D27C"/>
<circle cx="100.693" cy="364.66" r="2.5" fill="#89D27C"/>
<circle cx="108.693" cy="364.66" r="2.5" fill="#89D27C"/>
<circle cx="116.693" cy="364.66" r="2.5" fill="#89D27C"/>
<circle cx="124.693" cy="364.66" r="2.5" fill="#89D27C"/>
<circle cx="132.693" cy="364.66" r="2.5" fill="#89D27C"/>
<circle cx="140.693" cy="364.66" r="2.5" fill="#89D27C"/>
<circle cx="148.693" cy="364.66" r="2.5" fill="#89D27C"/>
<circle cx="28.6925" cy="372.66" r="2.5" fill="#89D27C"/>
<circle cx="36.6925" cy="372.66" r="2.5" fill="#89D27C"/>
<circle cx="44.6925" cy="372.66" r="2.5" fill="#89D27C"/>
<circle cx="52.6925" cy="372.66" r="2.5" fill="#89D27C"/>
<circle cx="60.6925" cy="372.66" r="2.5" fill="#89D27C"/>
<circle cx="68.6925" cy="372.66" r="2.5" fill="#89D27C"/>
<circle cx="76.6925" cy="372.66" r="2.5" fill="#89D27C"/>
<circle cx="84.6925" cy="372.66" r="2.5" fill="#89D27C"/>
<circle cx="92.6925" cy="372.66" r="2.5" fill="#89D27C"/>
<circle cx="100.693" cy="372.66" r="2.5" fill="#89D27C"/>
<circle cx="108.693" cy="372.66" r="2.5" fill="#89D27C"/>
<circle cx="116.693" cy="372.66" r="2.5" fill="#89D27C"/>
<circle cx="124.693" cy="372.66" r="2.5" fill="#89D27C"/>
<circle cx="132.693" cy="372.66" r="2.5" fill="#89D27C"/>
<circle cx="140.693" cy="372.66" r="2.5" fill="#89D27C"/>
<circle cx="148.693" cy="372.66" r="2.5" fill="#89D27C"/>
<circle cx="28.6925" cy="380.66" r="2.5" fill="#89D27C"/>
<circle cx="36.6925" cy="380.66" r="2.5" fill="#89D27C"/>
<circle cx="44.6925" cy="380.66" r="2.5" fill="#89D27C"/>
<circle cx="52.6925" cy="380.66" r="2.5" fill="#89D27C"/>
<circle cx="60.6925" cy="380.66" r="2.5" fill="#89D27C"/>
<circle cx="68.6925" cy="380.66" r="2.5" fill="#89D27C"/>
<circle cx="76.6925" cy="380.66" r="2.5" fill="#89D27C"/>
<circle cx="84.6925" cy="380.66" r="2.5" fill="#89D27C"/>
<circle cx="92.6925" cy="380.66" r="2.5" fill="#89D27C"/>
<circle cx="100.693" cy="380.66" r="2.5" fill="#89D27C"/>
<circle cx="108.693" cy="380.66" r="2.5" fill="#89D27C"/>
<circle cx="116.693" cy="380.66" r="2.5" fill="#89D27C"/>
<circle cx="124.693" cy="380.66" r="2.5" fill="#89D27C"/>
<circle cx="132.693" cy="380.66" r="2.5" fill="#89D27C"/>
<circle cx="140.693" cy="380.66" r="2.5" fill="#89D27C"/>
<circle cx="148.693" cy="380.66" r="2.5" fill="#89D27C"/>
<circle cx="28.6925" cy="388.66" r="2.5" fill="#89D27C"/>
<circle cx="36.6925" cy="388.66" r="2.5" fill="#89D27C"/>
<circle cx="44.6925" cy="388.66" r="2.5" fill="#89D27C"/>
<circle cx="52.6925" cy="388.66" r="2.5" fill="#89D27C"/>
<circle cx="60.6925" cy="388.66" r="2.5" fill="#89D27C"/>
<circle cx="68.6925" cy="388.66" r="2.5" fill="#89D27C"/>
<circle cx="76.6925" cy="388.66" r="2.5" fill="#89D27C"/>
<circle cx="84.6925" cy="388.66" r="2.5" fill="#89D27C"/>
<circle cx="92.6925" cy="388.66" r="2.5" fill="#89D27C"/>
<circle cx="100.693" cy="388.66" r="2.5" fill="#89D27C"/>
<circle cx="108.693" cy="388.66" r="2.5" fill="#89D27C"/>
<circle cx="116.693" cy="388.66" r="2.5" fill="#89D27C"/>
<circle cx="124.693" cy="388.66" r="2.5" fill="#89D27C"/>
<circle cx="132.693" cy="388.66" r="2.5" fill="#89D27C"/>
<circle cx="140.693" cy="388.66" r="2.5" fill="#89D27C"/>
<circle cx="148.693" cy="388.66" r="2.5" fill="#89D27C"/>
<circle cx="28.6925" cy="396.66" r="2.5" fill="#89D27C"/>
<circle cx="36.6925" cy="396.66" r="2.5" fill="#89D27C"/>
<circle cx="44.6925" cy="396.66" r="2.5" fill="#89D27C"/>
<circle cx="52.6925" cy="396.66" r="2.5" fill="#89D27C"/>
<circle cx="60.6925" cy="396.66" r="2.5" fill="#89D27C"/>
<circle cx="68.6925" cy="396.66" r="2.5" fill="#89D27C"/>
<circle cx="76.6925" cy="396.66" r="2.5" fill="#89D27C"/>
<circle cx="84.6925" cy="396.66" r="2.5" fill="#89D27C"/>
<circle cx="92.6925" cy="396.66" r="2.5" fill="#89D27C"/>
<circle cx="100.693" cy="396.66" r="2.5" fill="#89D27C"/>
<circle cx="108.693" cy="396.66" r="2.5" fill="#89D27C"/>
<circle cx="116.693" cy="396.66" r="2.5" fill="#89D27C"/>
<circle cx="124.693" cy="396.66" r="2.5" fill="#89D27C"/>
<circle cx="132.693" cy="396.66" r="2.5" fill="#89D27C"/>
<circle cx="140.693" cy="396.66" r="2.5" fill="#89D27C"/>
<circle cx="148.693" cy="396.66" r="2.5" fill="#89D27C"/>
<circle cx="28.6925" cy="404.66" r="2.5" fill="#89D27C"/>
<circle cx="36.6925" cy="404.66" r="2.5" fill="#89D27C"/>
<circle cx="44.6925" cy="404.66" r="2.5" fill="#89D27C"/>
<circle cx="52.6925" cy="404.66" r="2.5" fill="#89D27C"/>
<circle cx="60.6925" cy="404.66" r="2.5" fill="#89D27C"/>
<circle cx="68.6925" cy="404.66" r="2.5" fill="#89D27C"/>
<circle cx="76.6925" cy="404.66" r="2.5" fill="#89D27C"/>
<circle cx="84.6925" cy="404.66" r="2.5" fill="#89D27C"/>
<circle cx="92.6925" cy="404.66" r="2.5" fill="#89D27C"/>
<circle cx="100.693" cy="404.66" r="2.5" fill="#89D27C"/>
<circle cx="108.693" cy="404.66" r="2.5" fill="#89D27C"/>
<circle cx="116.693" cy="404.66" r="2.5" fill="#89D27C"/>
<circle cx="124.693" cy="404.66" r="2.5" fill="#89D27C"/>
<circle cx="132.693" cy="404.66" r="2.5" fill="#89D27C"/>
<circle cx="140.693" cy="404.66" r="2.5" fill="#89D27C"/>
<circle cx="148.693" cy="404.66" r="2.5" fill="#89D27C"/>
<circle cx="28.6925" cy="412.66" r="2.5" fill="#89D27C"/>
<circle cx="36.6925" cy="412.66" r="2.5" fill="#89D27C"/>
<circle cx="44.6925" cy="412.66" r="2.5" fill="#89D27C"/>
<circle cx="52.6925" cy="412.66" r="2.5" fill="#89D27C"/>
<circle cx="60.6925" cy="412.66" r="2.5" fill="#89D27C"/>
<circle cx="68.6925" cy="412.66" r="2.5" fill="#89D27C"/>
<circle cx="76.6925" cy="412.66" r="2.5" fill="#89D27C"/>
<circle cx="84.6925" cy="412.66" r="2.5" fill="#89D27C"/>
<circle cx="92.6925" cy="412.66" r="2.5" fill="#89D27C"/>
<circle cx="100.693" cy="412.66" r="2.5" fill="#89D27C"/>
<circle cx="108.693" cy="412.66" r="2.5" fill="#89D27C"/>
<circle cx="116.693" cy="412.66" r="2.5" fill="#89D27C"/>
<circle cx="124.693" cy="412.66" r="2.5" fill="#89D27C"/>
<circle cx="132.693" cy="412.66" r="2.5" fill="#89D27C"/>
<circle cx="140.693" cy="412.66" r="2.5" fill="#89D27C"/>
<circle cx="148.693" cy="412.66" r="2.5" fill="#89D27C"/>
<circle cx="28.6925" cy="420.66" r="2.5" fill="#89D27C"/>
<circle cx="36.6925" cy="420.66" r="2.5" fill="#89D27C"/>
<circle cx="44.6925" cy="420.66" r="2.5" fill="#89D27C"/>
<circle cx="52.6925" cy="420.66" r="2.5" fill="#89D27C"/>
<circle cx="60.6925" cy="420.66" r="2.5" fill="#89D27C"/>
<circle cx="68.6925" cy="420.66" r="2.5" fill="#89D27C"/>
<circle cx="76.6925" cy="420.66" r="2.5" fill="#89D27C"/>
<circle cx="84.6925" cy="420.66" r="2.5" fill="#89D27C"/>
<circle cx="92.6925" cy="420.66" r="2.5" fill="#89D27C"/>
<circle cx="100.693" cy="420.66" r="2.5" fill="#89D27C"/>
<circle cx="108.693" cy="420.66" r="2.5" fill="#89D27C"/>
<circle cx="116.693" cy="420.66" r="2.5" fill="#89D27C"/>
<circle cx="124.693" cy="420.66" r="2.5" fill="#89D27C"/>
<circle cx="132.693" cy="420.66" r="2.5" fill="#89D27C"/>
<circle cx="140.693" cy="420.66" r="2.5" fill="#89D27C"/>
<circle cx="148.693" cy="420.66" r="2.5" fill="#89D27C"/>
<circle cx="28.6925" cy="428.66" r="2.5" fill="#89D27C"/>
<circle cx="36.6925" cy="428.66" r="2.5" fill="#89D27C"/>
<circle cx="44.6925" cy="428.66" r="2.5" fill="#89D27C"/>
<circle cx="52.6925" cy="428.66" r="2.5" fill="#89D27C"/>
<circle cx="60.6925" cy="428.66" r="2.5" fill="#89D27C"/>
<circle cx="68.6925" cy="428.66" r="2.5" fill="#89D27C"/>
<circle cx="76.6925" cy="428.66" r="2.5" fill="#89D27C"/>
<circle cx="84.6925" cy="428.66" r="2.5" fill="#89D27C"/>
<circle cx="92.6925" cy="428.66" r="2.5" fill="#89D27C"/>
<circle cx="100.693" cy="428.66" r="2.5" fill="#89D27C"/>
<circle cx="108.693" cy="428.66" r="2.5" fill="#89D27C"/>
<circle cx="116.693" cy="428.66" r="2.5" fill="#89D27C"/>
<circle cx="124.693" cy="428.66" r="2.5" fill="#89D27C"/>
<circle cx="132.693" cy="428.66" r="2.5" fill="#89D27C"/>
<circle cx="140.693" cy="428.66" r="2.5" fill="#89D27C"/>
<circle cx="148.693" cy="428.66" r="2.5" fill="#89D27C"/>
<circle cx="156.693" cy="428.66" r="2.5" fill="#89D27C"/>
<circle cx="156.754" cy="300.663" r="2.5" transform="rotate(90 156.754 300.663)" fill="#89D27C"/>
<circle cx="156.754" cy="308.663" r="2.5" transform="rotate(90 156.754 308.663)" fill="#89D27C"/>
<circle cx="156.754" cy="316.663" r="2.5" transform="rotate(90 156.754 316.663)" fill="#89D27C"/>
<circle cx="156.754" cy="324.663" r="2.5" transform="rotate(90 156.754 324.663)" fill="#89D27C"/>
<circle cx="156.754" cy="332.663" r="2.5" transform="rotate(90 156.754 332.663)" fill="#89D27C"/>
<circle cx="156.754" cy="340.663" r="2.5" transform="rotate(90 156.754 340.663)" fill="#89D27C"/>
<circle cx="156.754" cy="348.663" r="2.5" transform="rotate(90 156.754 348.663)" fill="#89D27C"/>
<circle cx="156.754" cy="356.663" r="2.5" transform="rotate(90 156.754 356.663)" fill="#89D27C"/>
<circle cx="156.754" cy="364.663" r="2.5" transform="rotate(90 156.754 364.663)" fill="#89D27C"/>
<circle cx="156.754" cy="372.663" r="2.5" transform="rotate(90 156.754 372.663)" fill="#89D27C"/>
<circle cx="156.754" cy="380.663" r="2.5" transform="rotate(90 156.754 380.663)" fill="#89D27C"/>
<circle cx="156.754" cy="388.663" r="2.5" transform="rotate(90 156.754 388.663)" fill="#89D27C"/>
<circle cx="156.754" cy="396.663" r="2.5" transform="rotate(90 156.754 396.663)" fill="#89D27C"/>
<circle cx="156.754" cy="404.663" r="2.5" transform="rotate(90 156.754 404.663)" fill="#89D27C"/>
<circle cx="156.754" cy="412.663" r="2.5" transform="rotate(90 156.754 412.663)" fill="#89D27C"/>
<circle cx="156.754" cy="420.663" r="2.5" transform="rotate(90 156.754 420.663)" fill="#89D27C"/>
<circle cx="315.839" cy="37.5" r="2.5" fill="#89D27C"/>
<circle cx="323.839" cy="37.5" r="2.5" fill="#89D27C"/>
<circle cx="331.839" cy="37.5" r="2.5" fill="#89D27C"/>
<circle cx="339.839" cy="37.5" r="2.5" fill="#89D27C"/>
<circle cx="347.839" cy="37.5" r="2.5" fill="#89D27C"/>
<circle cx="355.839" cy="37.5" r="2.5" fill="#89D27C"/>
<circle cx="363.839" cy="37.5" r="2.5" fill="#89D27C"/>
<circle cx="371.839" cy="37.5" r="2.5" fill="#89D27C"/>
<circle cx="379.839" cy="37.5" r="2.5" fill="#89D27C"/>
<circle cx="387.839" cy="37.5" r="2.5" fill="#89D27C"/>
<circle cx="395.839" cy="37.5" r="2.5" fill="#89D27C"/>
<circle cx="403.839" cy="37.5" r="2.5" fill="#89D27C"/>
<circle cx="411.839" cy="37.5" r="2.5" fill="#89D27C"/>
<circle cx="419.839" cy="37.5" r="2.5" fill="#89D27C"/>
<circle cx="427.839" cy="37.5" r="2.5" fill="#89D27C"/>
<circle cx="435.839" cy="37.5" r="2.5" fill="#89D27C"/>
<circle cx="315.839" cy="45.5" r="2.5" fill="#89D27C"/>
<circle cx="323.839" cy="45.5" r="2.5" fill="#89D27C"/>
<circle cx="331.839" cy="45.5" r="2.5" fill="#89D27C"/>
<circle cx="339.839" cy="45.5" r="2.5" fill="#89D27C"/>
<circle cx="347.839" cy="45.5" r="2.5" fill="#89D27C"/>
<circle cx="355.839" cy="45.5" r="2.5" fill="#89D27C"/>
<circle cx="363.839" cy="45.5" r="2.5" fill="#89D27C"/>
<circle cx="371.839" cy="45.5" r="2.5" fill="#89D27C"/>
<circle cx="379.839" cy="45.5" r="2.5" fill="#89D27C"/>
<circle cx="387.839" cy="45.5" r="2.5" fill="#89D27C"/>
<circle cx="395.839" cy="45.5" r="2.5" fill="#89D27C"/>
<circle cx="403.839" cy="45.5" r="2.5" fill="#89D27C"/>
<circle cx="411.839" cy="45.5" r="2.5" fill="#89D27C"/>
<circle cx="419.839" cy="45.5" r="2.5" fill="#89D27C"/>
<circle cx="427.839" cy="45.5" r="2.5" fill="#89D27C"/>
<circle cx="435.839" cy="45.5" r="2.5" fill="#89D27C"/>
<circle cx="315.839" cy="53.5" r="2.5" fill="#89D27C"/>
<circle cx="323.839" cy="53.5" r="2.5" fill="#89D27C"/>
<circle cx="331.839" cy="53.5" r="2.5" fill="#89D27C"/>
<circle cx="339.839" cy="53.5" r="2.5" fill="#89D27C"/>
<circle cx="347.839" cy="53.5" r="2.5" fill="#89D27C"/>
<circle cx="355.839" cy="53.5" r="2.5" fill="#89D27C"/>
<circle cx="363.839" cy="53.5" r="2.5" fill="#89D27C"/>
<circle cx="371.839" cy="53.5" r="2.5" fill="#89D27C"/>
<circle cx="379.839" cy="53.5" r="2.5" fill="#89D27C"/>
<circle cx="387.839" cy="53.5" r="2.5" fill="#89D27C"/>
<circle cx="395.839" cy="53.5" r="2.5" fill="#89D27C"/>
<circle cx="403.839" cy="53.5" r="2.5" fill="#89D27C"/>
<circle cx="411.839" cy="53.5" r="2.5" fill="#89D27C"/>
<circle cx="419.839" cy="53.5" r="2.5" fill="#89D27C"/>
<circle cx="427.839" cy="53.5" r="2.5" fill="#89D27C"/>
<circle cx="435.839" cy="53.5" r="2.5" fill="#89D27C"/>
<circle cx="315.839" cy="61.5" r="2.5" fill="#89D27C"/>
<circle cx="323.839" cy="61.5" r="2.5" fill="#89D27C"/>
<circle cx="331.839" cy="61.5" r="2.5" fill="#89D27C"/>
<circle cx="339.839" cy="61.5" r="2.5" fill="#89D27C"/>
<circle cx="347.839" cy="61.5" r="2.5" fill="#89D27C"/>
<circle cx="355.839" cy="61.5" r="2.5" fill="#89D27C"/>
<circle cx="363.839" cy="61.5" r="2.5" fill="#89D27C"/>
<circle cx="371.839" cy="61.5" r="2.5" fill="#89D27C"/>
<circle cx="379.839" cy="61.5" r="2.5" fill="#89D27C"/>
<circle cx="387.839" cy="61.5" r="2.5" fill="#89D27C"/>
<circle cx="395.839" cy="61.5" r="2.5" fill="#89D27C"/>
<circle cx="403.839" cy="61.5" r="2.5" fill="#89D27C"/>
<circle cx="411.839" cy="61.5" r="2.5" fill="#89D27C"/>
<circle cx="419.839" cy="61.5" r="2.5" fill="#89D27C"/>
<circle cx="427.839" cy="61.5" r="2.5" fill="#89D27C"/>
<circle cx="435.839" cy="61.5" r="2.5" fill="#89D27C"/>
<circle cx="315.839" cy="69.5" r="2.5" fill="#89D27C"/>
<circle cx="323.839" cy="69.5" r="2.5" fill="#89D27C"/>
<circle cx="331.839" cy="69.5" r="2.5" fill="#89D27C"/>
<circle cx="339.839" cy="69.5" r="2.5" fill="#89D27C"/>
<circle cx="347.839" cy="69.5" r="2.5" fill="#89D27C"/>
<circle cx="355.839" cy="69.5" r="2.5" fill="#89D27C"/>
<circle cx="363.839" cy="69.5" r="2.5" fill="#89D27C"/>
<circle cx="371.839" cy="69.5" r="2.5" fill="#89D27C"/>
<circle cx="379.839" cy="69.5" r="2.5" fill="#89D27C"/>
<circle cx="387.839" cy="69.5" r="2.5" fill="#89D27C"/>
<circle cx="395.839" cy="69.5" r="2.5" fill="#89D27C"/>
<circle cx="403.839" cy="69.5" r="2.5" fill="#89D27C"/>
<circle cx="411.839" cy="69.5" r="2.5" fill="#89D27C"/>
<circle cx="419.839" cy="69.5" r="2.5" fill="#89D27C"/>
<circle cx="427.839" cy="69.5" r="2.5" fill="#89D27C"/>
<circle cx="435.839" cy="69.5" r="2.5" fill="#89D27C"/>
<circle cx="315.839" cy="77.5" r="2.5" fill="#89D27C"/>
<circle cx="323.839" cy="77.5" r="2.5" fill="#89D27C"/>
<circle cx="331.839" cy="77.5" r="2.5" fill="#89D27C"/>
<circle cx="339.839" cy="77.5" r="2.5" fill="#89D27C"/>
<circle cx="347.839" cy="77.5" r="2.5" fill="#89D27C"/>
<circle cx="355.839" cy="77.5" r="2.5" fill="#89D27C"/>
<circle cx="363.839" cy="77.5" r="2.5" fill="#89D27C"/>
<circle cx="371.839" cy="77.5" r="2.5" fill="#89D27C"/>
<circle cx="379.839" cy="77.5" r="2.5" fill="#89D27C"/>
<circle cx="387.839" cy="77.5" r="2.5" fill="#89D27C"/>
<circle cx="395.839" cy="77.5" r="2.5" fill="#89D27C"/>
<circle cx="403.839" cy="77.5" r="2.5" fill="#89D27C"/>
<circle cx="411.839" cy="77.5" r="2.5" fill="#89D27C"/>
<circle cx="419.839" cy="77.5" r="2.5" fill="#89D27C"/>
<circle cx="427.839" cy="77.5" r="2.5" fill="#89D27C"/>
<circle cx="435.839" cy="77.5" r="2.5" fill="#89D27C"/>
<circle cx="315.839" cy="85.5" r="2.5" fill="#89D27C"/>
<circle cx="323.839" cy="85.5" r="2.5" fill="#89D27C"/>
<circle cx="331.839" cy="85.5" r="2.5" fill="#89D27C"/>
<circle cx="339.839" cy="85.5" r="2.5" fill="#89D27C"/>
<circle cx="347.839" cy="85.5" r="2.5" fill="#89D27C"/>
<circle cx="355.839" cy="85.5" r="2.5" fill="#89D27C"/>
<circle cx="363.839" cy="85.5" r="2.5" fill="#89D27C"/>
<circle cx="371.839" cy="85.5" r="2.5" fill="#89D27C"/>
<circle cx="379.839" cy="85.5" r="2.5" fill="#89D27C"/>
<circle cx="387.839" cy="85.5" r="2.5" fill="#89D27C"/>
<circle cx="395.839" cy="85.5" r="2.5" fill="#89D27C"/>
<circle cx="403.839" cy="85.5" r="2.5" fill="#89D27C"/>
<circle cx="411.839" cy="85.5" r="2.5" fill="#89D27C"/>
<circle cx="419.839" cy="85.5" r="2.5" fill="#89D27C"/>
<circle cx="427.839" cy="85.5" r="2.5" fill="#89D27C"/>
<circle cx="435.839" cy="85.5" r="2.5" fill="#89D27C"/>
<circle cx="315.839" cy="93.5" r="2.5" fill="#89D27C"/>
<circle cx="323.839" cy="93.5" r="2.5" fill="#89D27C"/>
<circle cx="331.839" cy="93.5" r="2.5" fill="#89D27C"/>
<circle cx="339.839" cy="93.5" r="2.5" fill="#89D27C"/>
<circle cx="347.839" cy="93.5" r="2.5" fill="#89D27C"/>
<circle cx="355.839" cy="93.5" r="2.5" fill="#89D27C"/>
<circle cx="363.839" cy="93.5" r="2.5" fill="#89D27C"/>
<circle cx="371.839" cy="93.5" r="2.5" fill="#89D27C"/>
<circle cx="379.839" cy="93.5" r="2.5" fill="#89D27C"/>
<circle cx="387.839" cy="93.5" r="2.5" fill="#89D27C"/>
<circle cx="395.839" cy="93.5" r="2.5" fill="#89D27C"/>
<circle cx="403.839" cy="93.5" r="2.5" fill="#89D27C"/>
<circle cx="411.839" cy="93.5" r="2.5" fill="#89D27C"/>
<circle cx="419.839" cy="93.5" r="2.5" fill="#89D27C"/>
<circle cx="427.839" cy="93.5" r="2.5" fill="#89D27C"/>
<circle cx="435.839" cy="93.5" r="2.5" fill="#89D27C"/>
<circle cx="315.839" cy="101.5" r="2.5" fill="#89D27C"/>
<circle cx="323.839" cy="101.5" r="2.5" fill="#89D27C"/>
<circle cx="331.839" cy="101.5" r="2.5" fill="#89D27C"/>
<circle cx="339.839" cy="101.5" r="2.5" fill="#89D27C"/>
<circle cx="347.839" cy="101.5" r="2.5" fill="#89D27C"/>
<circle cx="355.839" cy="101.5" r="2.5" fill="#89D27C"/>
<circle cx="363.839" cy="101.5" r="2.5" fill="#89D27C"/>
<circle cx="371.839" cy="101.5" r="2.5" fill="#89D27C"/>
<circle cx="379.839" cy="101.5" r="2.5" fill="#89D27C"/>
<circle cx="387.839" cy="101.5" r="2.5" fill="#89D27C"/>
<circle cx="395.839" cy="101.5" r="2.5" fill="#89D27C"/>
<circle cx="403.839" cy="101.5" r="2.5" fill="#89D27C"/>
<circle cx="411.839" cy="101.5" r="2.5" fill="#89D27C"/>
<circle cx="419.839" cy="101.5" r="2.5" fill="#89D27C"/>
<circle cx="427.839" cy="101.5" r="2.5" fill="#89D27C"/>
<circle cx="435.839" cy="101.5" r="2.5" fill="#89D27C"/>
<circle cx="315.839" cy="109.5" r="2.5" fill="#89D27C"/>
<circle cx="323.839" cy="109.5" r="2.5" fill="#89D27C"/>
<circle cx="331.839" cy="109.5" r="2.5" fill="#89D27C"/>
<circle cx="339.839" cy="109.5" r="2.5" fill="#89D27C"/>
<circle cx="347.839" cy="109.5" r="2.5" fill="#89D27C"/>
<circle cx="355.839" cy="109.5" r="2.5" fill="#89D27C"/>
<circle cx="363.839" cy="109.5" r="2.5" fill="#89D27C"/>
<circle cx="371.839" cy="109.5" r="2.5" fill="#89D27C"/>
<circle cx="379.839" cy="109.5" r="2.5" fill="#89D27C"/>
<circle cx="387.839" cy="109.5" r="2.5" fill="#89D27C"/>
<circle cx="395.839" cy="109.5" r="2.5" fill="#89D27C"/>
<circle cx="403.839" cy="109.5" r="2.5" fill="#89D27C"/>
<circle cx="411.839" cy="109.5" r="2.5" fill="#89D27C"/>
<circle cx="419.839" cy="109.5" r="2.5" fill="#89D27C"/>
<circle cx="427.839" cy="109.5" r="2.5" fill="#89D27C"/>
<circle cx="435.839" cy="109.5" r="2.5" fill="#89D27C"/>
<circle cx="315.839" cy="117.5" r="2.5" fill="#89D27C"/>
<circle cx="323.839" cy="117.5" r="2.5" fill="#89D27C"/>
<circle cx="331.839" cy="117.5" r="2.5" fill="#89D27C"/>
<circle cx="339.839" cy="117.5" r="2.5" fill="#89D27C"/>
<circle cx="347.839" cy="117.5" r="2.5" fill="#89D27C"/>
<circle cx="355.839" cy="117.5" r="2.5" fill="#89D27C"/>
<circle cx="363.839" cy="117.5" r="2.5" fill="#89D27C"/>
<circle cx="371.839" cy="117.5" r="2.5" fill="#89D27C"/>
<circle cx="379.839" cy="117.5" r="2.5" fill="#89D27C"/>
<circle cx="387.839" cy="117.5" r="2.5" fill="#89D27C"/>
<circle cx="395.839" cy="117.5" r="2.5" fill="#89D27C"/>
<circle cx="403.839" cy="117.5" r="2.5" fill="#89D27C"/>
<circle cx="411.839" cy="117.5" r="2.5" fill="#89D27C"/>
<circle cx="419.839" cy="117.5" r="2.5" fill="#89D27C"/>
<circle cx="427.839" cy="117.5" r="2.5" fill="#89D27C"/>
<circle cx="435.839" cy="117.5" r="2.5" fill="#89D27C"/>
<circle cx="315.839" cy="125.5" r="2.5" fill="#89D27C"/>
<circle cx="323.839" cy="125.5" r="2.5" fill="#89D27C"/>
<circle cx="331.839" cy="125.5" r="2.5" fill="#89D27C"/>
<circle cx="339.839" cy="125.5" r="2.5" fill="#89D27C"/>
<circle cx="347.839" cy="125.5" r="2.5" fill="#89D27C"/>
<circle cx="355.839" cy="125.5" r="2.5" fill="#89D27C"/>
<circle cx="363.839" cy="125.5" r="2.5" fill="#89D27C"/>
<circle cx="371.839" cy="125.5" r="2.5" fill="#89D27C"/>
<circle cx="379.839" cy="125.5" r="2.5" fill="#89D27C"/>
<circle cx="387.839" cy="125.5" r="2.5" fill="#89D27C"/>
<circle cx="395.839" cy="125.5" r="2.5" fill="#89D27C"/>
<circle cx="403.839" cy="125.5" r="2.5" fill="#89D27C"/>
<circle cx="411.839" cy="125.5" r="2.5" fill="#89D27C"/>
<circle cx="419.839" cy="125.5" r="2.5" fill="#89D27C"/>
<circle cx="427.839" cy="125.5" r="2.5" fill="#89D27C"/>
<circle cx="435.839" cy="125.5" r="2.5" fill="#89D27C"/>
<circle cx="315.839" cy="133.5" r="2.5" fill="#89D27C"/>
<circle cx="323.839" cy="133.5" r="2.5" fill="#89D27C"/>
<circle cx="331.839" cy="133.5" r="2.5" fill="#89D27C"/>
<circle cx="339.839" cy="133.5" r="2.5" fill="#89D27C"/>
<circle cx="347.839" cy="133.5" r="2.5" fill="#89D27C"/>
<circle cx="355.839" cy="133.5" r="2.5" fill="#89D27C"/>
<circle cx="363.839" cy="133.5" r="2.5" fill="#89D27C"/>
<circle cx="371.839" cy="133.5" r="2.5" fill="#89D27C"/>
<circle cx="379.839" cy="133.5" r="2.5" fill="#89D27C"/>
<circle cx="387.839" cy="133.5" r="2.5" fill="#89D27C"/>
<circle cx="395.839" cy="133.5" r="2.5" fill="#89D27C"/>
<circle cx="403.839" cy="133.5" r="2.5" fill="#89D27C"/>
<circle cx="411.839" cy="133.5" r="2.5" fill="#89D27C"/>
<circle cx="419.839" cy="133.5" r="2.5" fill="#89D27C"/>
<circle cx="427.839" cy="133.5" r="2.5" fill="#89D27C"/>
<circle cx="435.839" cy="133.5" r="2.5" fill="#89D27C"/>
<rect x="318.001" y="351.932" width="141.537" height="91.0474" rx="2" stroke="#F2C18D" stroke-width="2"/>
<rect x="16.4617" y="32.4693" width="191.608" height="141.707" rx="2" stroke="#F2C18D" stroke-width="2"/>
</svg>
