<svg width="230" height="47" viewBox="0 0 230 47" fill="none" xmlns="http://www.w3.org/2000/svg">
<ellipse cx="12.1329" cy="21" rx="12.1329" ry="12" fill="#FAECDD"/>
<ellipse cx="28.3101" cy="21" rx="12.1329" ry="12" fill="#FAECDD"/>
<path d="M53.122 37.688C53.0947 37.5513 53.081 37.3873 53.081 37.196C53.081 36.786 53.2177 36.417 53.491 36.089C53.7917 35.7337 53.942 35.5013 53.942 35.392L53.204 8.824C53.204 8.742 53.163 8.578 53.081 8.332C52.999 8.086 52.958 7.89467 52.958 7.758C52.958 7.29333 53.3134 6.91067 54.024 6.61C54.598 6.39133 55.172 6.282 55.746 6.282C55.91 6.282 56.6754 6.364 58.042 6.528C58.206 6.528 59.0124 6.241 60.461 5.667C61.9097 5.06567 63.208 4.765 64.356 4.765C66.57 4.765 68.4287 5.84467 69.932 8.004C70.342 8.63266 70.547 9.439 70.547 10.423C70.547 12.7737 69.2487 16.4363 66.652 21.411C63.946 26.6317 61.732 29.242 60.01 29.242C59.5454 29.242 59.2174 28.996 59.026 28.504C58.944 29.1327 58.903 29.9253 58.903 30.882C58.903 31.702 58.9167 32.5903 58.944 33.547C58.9987 34.4763 59.0807 35.474 59.19 36.54C59.19 36.622 59.2037 36.7587 59.231 36.95C59.2857 37.114 59.3404 37.2917 59.395 37.483C59.4497 37.6743 59.4907 37.8657 59.518 38.057C59.5727 38.221 59.6 38.3577 59.6 38.467C59.6 38.9863 59.2447 39.4373 58.534 39.82C58.206 39.984 57.7687 40.066 57.222 40.066C56.2927 40.066 55.4454 39.861 54.68 39.451C53.778 38.9863 53.2587 38.3987 53.122 37.688ZM58.616 13.088L58.78 22.518C59.9827 21.5887 61.281 19.7847 62.675 17.106C64.0964 14.3727 64.807 12.2953 64.807 10.874C64.807 10.054 64.479 9.644 63.823 9.644C63.167 9.644 62.3197 9.99933 61.281 10.71C60.297 11.3933 59.4087 12.186 58.616 13.088ZM70.4093 39.41C70.2453 39.1367 70.1633 38.8223 70.1633 38.467C70.1633 38.3303 70.1906 38.139 70.2453 37.893C70.3 37.647 70.3683 37.3873 70.4503 37.114C70.5323 36.8407 70.6006 36.5673 70.6553 36.294C70.71 36.0207 70.7373 35.7747 70.7373 35.556L70.5733 9.07V6.856C70.6553 6.50066 71.038 6.21366 71.7213 5.995C72.4046 5.749 73.129 5.626 73.8943 5.626C74.4683 5.626 74.9193 5.68067 75.2473 5.79C75.5753 5.89933 75.835 6.04966 76.0263 6.241C76.2176 6.43233 76.3406 6.63733 76.3953 6.856C76.45 7.07467 76.4773 7.29333 76.4773 7.512C76.4773 7.78533 76.368 8.291 76.1493 9.029C75.9306 9.767 75.8213 10.3273 75.8213 10.71V35.31C75.8213 35.6653 75.9306 36.212 76.1493 36.95C76.3953 37.606 76.5183 38.0843 76.5183 38.385C76.5183 38.631 76.45 38.918 76.3133 39.246C75.7666 40.2847 74.7553 40.804 73.2793 40.804C71.8853 40.804 70.9286 40.3393 70.4093 39.41ZM94.1935 39C93.4008 38.5353 92.9088 38.0707 92.7175 37.606C92.5808 37.278 92.3621 36.212 92.0615 34.408C91.4328 35.9387 90.2438 37.36 88.4945 38.672C86.6358 40.066 84.8455 40.763 83.1235 40.763C80.7181 40.763 79.1055 39.328 78.2855 36.458C78.0668 35.638 77.9575 34.8863 77.9575 34.203C77.9575 32.235 78.8185 30.513 80.5405 29.037C81.6885 27.9983 83.5061 26.9323 85.9935 25.839C87.3875 25.2103 88.4808 24.7047 89.2735 24.322C90.0935 23.912 90.6401 23.6113 90.9135 23.42C91.0228 23.01 91.0775 22.559 91.0775 22.067C91.0775 21.2197 90.8315 20.7277 90.3395 20.591C89.8748 20.427 89.3965 20.345 88.9045 20.345C87.6471 20.345 86.1028 20.96 84.2715 22.19C83.9981 22.354 83.5335 22.8187 82.8775 23.584C82.4128 24.158 81.9208 24.4587 81.4015 24.486H81.1555C80.4721 24.486 79.8708 24.2127 79.3515 23.666C78.8595 23.092 78.6135 22.4497 78.6135 21.739C78.6135 21.329 78.7228 20.9327 78.9415 20.55C79.4608 19.7027 80.8548 18.8007 83.1235 17.844C85.8568 16.696 88.6995 16.122 91.6515 16.122C93.4828 16.122 94.7401 16.9967 95.4235 18.746C95.8881 19.9487 96.2161 22.149 96.4075 25.347C96.5441 27.315 96.6808 29.0097 96.8175 30.431C96.9541 31.8523 97.1181 33.014 97.3095 33.916C97.3368 34.2713 97.5691 34.7223 98.0065 35.269C98.4165 35.8157 98.6215 36.3077 98.6215 36.745C98.6215 36.827 98.6078 36.909 98.5805 36.991C98.5805 37.073 98.5668 37.1687 98.5395 37.278C98.2115 38.6993 97.3231 39.41 95.8745 39.41C95.2185 39.41 94.6581 39.2733 94.1935 39ZM85.5015 30.636C84.9275 31.0733 84.3671 31.5517 83.8205 32.071C83.1371 32.6723 82.7955 33.301 82.7955 33.957C82.7955 34.449 82.9458 34.9 83.2465 35.31C83.5745 35.6927 83.9708 35.884 84.4355 35.884C85.5835 35.884 86.8408 35.105 88.2075 33.547C89.7381 31.7703 90.8041 29.652 91.4055 27.192C91.4055 27.192 91.1458 27.315 90.6265 27.561C90.1345 27.807 89.3691 28.1897 88.3305 28.709C87.7291 29.0097 87.1961 29.324 86.7315 29.652C86.2668 29.9527 85.8568 30.2807 85.5015 30.636ZM106.993 35.802V38.262C106.965 39.2733 106.692 39.984 106.173 40.394C105.681 40.804 105.148 41.009 104.574 41.009C103.562 41.009 102.51 40.476 101.417 39.41C101.116 39.1367 100.938 37.0457 100.884 33.137V33.752C100.911 33.752 100.925 29.1327 100.925 19.894C100.925 19.648 100.897 19.32 100.843 18.91C100.788 18.4727 100.761 18.1583 100.761 17.967C100.761 17.4203 100.897 16.9693 101.171 16.614C101.499 16.122 102.018 15.876 102.729 15.876C103.467 15.876 104.232 16.1083 105.025 16.573C105.845 17.0377 106.337 17.4613 106.501 17.844C106.61 18.09 106.665 18.3633 106.665 18.664C106.665 18.9373 106.555 19.32 106.337 19.812C106.118 20.304 106.009 20.714 106.009 21.042V26.7C107.703 23.092 109.002 20.673 109.904 19.443C111.38 17.557 113.033 16.614 114.865 16.614H115.193C116.368 16.696 117.202 17.7893 117.694 19.894C118.076 21.5067 118.281 23.8573 118.309 26.946V34.326C118.336 34.49 118.527 34.8317 118.883 35.351C119.047 35.597 119.129 35.8703 119.129 36.171V36.376C119.074 36.9773 118.678 37.4967 117.94 37.934C117.202 38.344 116.382 38.549 115.48 38.549C114.14 38.549 113.225 38.1253 112.733 37.278C112.76 36.3213 112.774 35.4193 112.774 34.572C112.801 33.7247 112.815 32.932 112.815 32.194C112.815 27.1373 112.541 24.568 111.995 24.486H111.954C111.27 24.486 109.617 28.258 106.993 35.802ZM133.405 38.016C133.186 38.3167 132.434 38.7267 131.15 39.246C129.838 39.738 128.676 39.984 127.665 39.984H127.255C125.232 39.8747 123.619 38.6857 122.417 36.417C121.351 34.367 120.818 31.8523 120.818 28.873C120.818 25.675 121.419 22.846 122.622 20.386C123.988 17.7073 125.779 16.204 127.993 15.876C128.211 15.8487 128.416 15.835 128.608 15.835C128.826 15.8077 129.045 15.794 129.264 15.794C132.516 15.794 134.307 17.7893 134.635 21.78C134.635 21.862 134.635 21.944 134.635 22.026C134.662 22.108 134.676 22.19 134.676 22.272C134.676 23.912 133.938 25.7433 132.462 27.766C130.685 30.1713 128.444 31.8387 125.738 32.768C125.874 33.3147 125.997 33.7657 126.107 34.121C126.243 34.4763 126.353 34.736 126.435 34.9C126.79 35.5833 127.309 35.925 127.993 35.925C128.621 35.925 129.291 35.679 130.002 35.187C130.603 34.777 131.013 34.3807 131.232 33.998C131.314 33.9707 131.423 33.67 131.56 33.096C131.669 32.522 131.956 32.112 132.421 31.866C132.585 31.784 132.776 31.743 132.995 31.743C133.623 31.743 134.252 32.071 134.881 32.727C135.4 33.301 135.66 33.8477 135.66 34.367C135.66 34.4217 135.646 34.4763 135.619 34.531C135.619 34.5857 135.619 34.6403 135.619 34.695C135.4 35.7337 134.662 36.8407 133.405 38.016ZM126.517 22.6C125.751 24.322 125.369 26.0577 125.369 27.807C125.369 27.971 125.369 28.135 125.369 28.299C125.369 28.4357 125.382 28.586 125.41 28.75C126.694 28.34 127.883 27.3833 128.977 25.88C130.07 24.3767 130.617 23.0373 130.617 21.862C130.617 20.796 130.138 20.263 129.182 20.263C128.088 20.263 127.2 21.042 126.517 22.6ZM142.012 22.805V32.522C142.012 32.522 142.012 32.44 142.012 32.276C142.039 32.112 142.053 31.8797 142.053 31.579C142.025 35.6517 141.67 38.836 140.987 41.132C140.139 44.166 138.732 45.806 136.764 46.052C136.654 46.0793 136.49 46.093 136.272 46.093C135.561 46.093 134.796 45.888 133.976 45.478C132.937 45.0133 132.418 44.4667 132.418 43.838C132.418 43.6193 132.5 43.4007 132.664 43.182C132.882 42.8813 133.238 42.731 133.73 42.731C133.921 42.731 134.071 42.7447 134.181 42.772C134.317 42.7993 134.454 42.813 134.591 42.813C134.7 42.8403 134.809 42.854 134.919 42.854C135.083 42.854 135.219 42.8403 135.329 42.813C135.438 42.7857 135.534 42.7447 135.616 42.69C136.49 42.0613 136.928 37.114 136.928 27.848C136.928 26.7547 136.914 25.5657 136.887 24.281C136.887 22.9963 136.873 21.5887 136.846 20.058C136.846 19.8393 136.764 19.4157 136.6 18.787C136.436 18.1857 136.354 17.721 136.354 17.393C136.354 16.4363 137.119 15.958 138.65 15.958C139.962 15.958 140.918 16.2587 141.52 16.86C142.012 17.352 142.258 18.0627 142.258 18.992C142.258 19.4293 142.217 20.0717 142.135 20.919C142.053 21.739 142.012 22.3677 142.012 22.805ZM137.748 12.022C137.748 11.858 137.72 11.5573 137.666 11.12C137.611 10.6827 137.584 10.3547 137.584 10.136C137.584 9.50733 137.748 9.04266 138.076 8.742C138.513 8.30467 139.087 8.086 139.798 8.086C140.372 8.086 140.918 8.26367 141.438 8.619C141.957 8.97433 142.217 9.439 142.217 10.013C142.217 10.1497 142.189 10.3273 142.135 10.546C142.107 10.7373 142.053 10.9423 141.971 11.161C141.916 11.3797 141.861 11.5983 141.807 11.817C141.779 12.0357 141.766 12.2133 141.766 12.35V12.432V12.514C141.766 12.7327 141.82 12.9787 141.93 13.252C142.066 13.498 142.135 13.703 142.135 13.867C142.135 14.031 142.094 14.2087 142.012 14.4C141.82 14.8373 141.287 15.056 140.413 15.056C139.757 15.056 139.155 14.9193 138.609 14.646C137.871 14.318 137.502 13.8807 137.502 13.334C137.502 13.17 137.543 12.9377 137.625 12.637C137.707 12.3363 137.748 12.1313 137.748 12.022ZM160.338 39C159.545 38.5353 159.053 38.0707 158.862 37.606C158.725 37.278 158.507 36.212 158.206 34.408C157.577 35.9387 156.388 37.36 154.639 38.672C152.78 40.066 150.99 40.763 149.268 40.763C146.863 40.763 145.25 39.328 144.43 36.458C144.211 35.638 144.102 34.8863 144.102 34.203C144.102 32.235 144.963 30.513 146.685 29.037C147.833 27.9983 149.651 26.9323 152.138 25.839C153.532 25.2103 154.625 24.7047 155.418 24.322C156.238 23.912 156.785 23.6113 157.058 23.42C157.167 23.01 157.222 22.559 157.222 22.067C157.222 21.2197 156.976 20.7277 156.484 20.591C156.019 20.427 155.541 20.345 155.049 20.345C153.792 20.345 152.247 20.96 150.416 22.19C150.143 22.354 149.678 22.8187 149.022 23.584C148.557 24.158 148.065 24.4587 147.546 24.486H147.3C146.617 24.486 146.015 24.2127 145.496 23.666C145.004 23.092 144.758 22.4497 144.758 21.739C144.758 21.329 144.867 20.9327 145.086 20.55C145.605 19.7027 146.999 18.8007 149.268 17.844C152.001 16.696 154.844 16.122 157.796 16.122C159.627 16.122 160.885 16.9967 161.568 18.746C162.033 19.9487 162.361 22.149 162.552 25.347C162.689 27.315 162.825 29.0097 162.962 30.431C163.099 31.8523 163.263 33.014 163.454 33.916C163.481 34.2713 163.714 34.7223 164.151 35.269C164.561 35.8157 164.766 36.3077 164.766 36.745C164.766 36.827 164.752 36.909 164.725 36.991C164.725 37.073 164.711 37.1687 164.684 37.278C164.356 38.6993 163.468 39.41 162.019 39.41C161.363 39.41 160.803 39.2733 160.338 39ZM151.646 30.636C151.072 31.0733 150.512 31.5517 149.965 32.071C149.282 32.6723 148.94 33.301 148.94 33.957C148.94 34.449 149.09 34.9 149.391 35.31C149.719 35.6927 150.115 35.884 150.58 35.884C151.728 35.884 152.985 35.105 154.352 33.547C155.883 31.7703 156.949 29.652 157.55 27.192C157.55 27.192 157.29 27.315 156.771 27.561C156.279 27.807 155.514 28.1897 154.475 28.709C153.874 29.0097 153.341 29.324 152.876 29.652C152.411 29.9527 152.001 30.2807 151.646 30.636ZM167.479 36.294C167.479 35.9933 167.63 35.6653 167.93 35.31C168.231 34.9547 168.381 34.6267 168.381 34.326L167.315 10.136C167.315 9.972 167.261 9.78066 167.151 9.562C167.069 9.316 166.974 9.08366 166.864 8.865C166.782 8.64633 166.7 8.44133 166.618 8.25C166.536 8.05867 166.495 7.89467 166.495 7.758C166.495 7.23867 166.851 6.66467 167.561 6.036C167.753 5.89933 168.19 5.831 168.873 5.831C171.306 5.831 172.837 6.39133 173.465 7.512C173.629 7.81267 173.711 8.09967 173.711 8.373C173.711 8.50966 173.67 8.67367 173.588 8.865C173.506 9.05633 173.424 9.26133 173.342 9.48C173.26 9.69867 173.178 9.91733 173.096 10.136C173.014 10.3547 172.973 10.546 172.973 10.71V20.714L179.861 8.496C179.998 8.14067 180.121 7.78533 180.23 7.43C180.367 7.07466 180.504 6.71933 180.64 6.364C180.996 5.626 181.624 5.257 182.526 5.257C183.374 5.257 184.262 5.57133 185.191 6.2C186.093 6.82867 186.544 7.49833 186.544 8.209C186.544 8.26367 186.531 8.31833 186.503 8.373C186.503 8.40033 186.503 8.44133 186.503 8.496C186.367 9.12467 186.107 9.53467 185.724 9.726C185.232 9.99933 184.918 10.2453 184.781 10.464L176.499 24.896L186.011 32.112C186.585 32.4673 187.173 32.8363 187.774 33.219C188.403 33.6017 188.799 34.0527 188.963 34.572C189.045 34.8727 189.086 35.187 189.086 35.515C189.086 36.663 188.635 37.7427 187.733 38.754C186.831 39.738 185.861 40.23 184.822 40.23C184.44 40.23 184.125 40.1753 183.879 40.066C182.895 39.6833 182.239 38.877 181.911 37.647C181.529 36.1983 181.091 35.2827 180.599 34.9L173.219 29.16L173.711 34.08C173.766 34.5173 173.903 35.0503 174.121 35.679C174.367 36.335 174.49 36.827 174.49 37.155C174.49 37.729 174.217 38.2757 173.67 38.795C173.151 39.287 172.509 39.533 171.743 39.533C170.869 39.533 169.967 39.205 169.037 38.549C167.999 37.8383 167.479 37.0867 167.479 36.294ZM189.567 12.678C189.567 12.4867 189.649 12.227 189.813 11.899C189.977 11.5437 190.072 11.2567 190.1 11.038C190.1 10.9833 190.1 10.915 190.1 10.833C190.127 10.7237 190.141 10.6007 190.141 10.464C190.141 10.3273 190.127 10.177 190.1 10.013C190.1 9.82167 190.1 9.61666 190.1 9.398V9.152C190.1 8.578 190.236 8.19533 190.51 8.004C190.947 7.676 191.726 7.512 192.847 7.512C194.077 7.512 194.938 7.758 195.43 8.25C195.512 8.332 195.553 8.46867 195.553 8.66C195.553 8.906 195.471 9.32967 195.307 9.931C195.088 10.6963 194.965 11.202 194.938 11.448V11.407C194.992 11.407 195.02 12.022 195.02 13.252C195.02 13.826 194.842 14.2087 194.487 14.4C194.159 14.564 193.735 14.646 193.216 14.646C192.532 14.646 191.781 14.4957 190.961 14.195C190.031 13.8397 189.567 13.334 189.567 12.678ZM194.938 39.738C194.254 40.1753 193.516 40.394 192.724 40.394C191.712 40.394 190.974 40.0387 190.51 39.328C189.936 38.426 189.649 35.802 189.649 31.456C189.649 30.9367 189.649 30.2807 189.649 29.488C189.649 28.668 189.662 27.7113 189.69 26.618C189.717 25.4973 189.731 24.5407 189.731 23.748C189.758 22.9553 189.772 22.2993 189.772 21.78C189.772 21.5887 189.758 21.3563 189.731 21.083C189.703 20.8097 189.676 20.5363 189.649 20.263C189.621 19.9897 189.594 19.7437 189.567 19.525C189.539 19.279 189.526 19.0877 189.526 18.951C189.526 18.049 189.854 17.27 190.51 16.614C190.783 16.3407 191.289 16.204 192.027 16.204C192.765 16.204 193.503 16.327 194.241 16.573C194.979 16.7917 195.443 17.0513 195.635 17.352C195.853 17.6527 195.963 17.9533 195.963 18.254C195.963 18.664 195.744 19.2653 195.307 20.058C194.897 20.8507 194.692 21.5067 194.692 22.026V34.08C194.692 34.572 194.842 35.351 195.143 36.417C195.443 37.4557 195.594 38.139 195.594 38.467C195.594 39.041 195.375 39.4647 194.938 39.738ZM207.734 18.828V13.539C207.734 13.1017 207.556 12.5413 207.201 11.858C206.845 11.1747 206.668 10.6553 206.668 10.3C206.668 10.0813 206.736 9.808 206.873 9.48C207.447 8.25 208.567 7.635 210.235 7.635C211.601 7.635 212.449 8.127 212.777 9.111C212.886 9.41166 212.941 9.726 212.941 10.054C212.941 10.3547 212.845 10.7647 212.654 11.284C212.49 11.776 212.408 12.1997 212.408 12.555V35.925C212.408 36.2257 212.517 36.5947 212.736 37.032C212.954 37.442 213.064 37.7837 213.064 38.057C213.064 38.303 213.009 38.5353 212.9 38.754C212.572 39.5193 211.56 39.902 209.866 39.902C208.8 39.902 208.089 39.6833 207.734 39.246C207.597 39.0547 207.529 38.8497 207.529 38.631C207.529 38.4397 207.597 38.139 207.734 37.729C207.87 37.319 207.952 37.0047 207.98 36.786C206.695 38.59 205.219 39.492 203.552 39.492C201.283 39.492 199.629 38.1937 198.591 35.597C197.798 33.6017 197.402 31.046 197.402 27.93C197.402 25.0327 198.017 22.395 199.247 20.017C200.613 17.4203 202.294 16.122 204.29 16.122C205.383 16.122 206.531 17.024 207.734 18.828ZM204.782 20.796C204.126 20.796 203.62 21.6297 203.265 23.297C202.964 24.7183 202.814 26.2627 202.814 27.93C202.814 28.0667 202.814 28.258 202.814 28.504C202.814 28.75 202.8 29.0507 202.773 29.406V30.923C202.773 34.0117 203.442 35.556 204.782 35.556C205.383 35.556 205.957 34.6677 206.504 32.891C206.996 31.251 207.242 29.5973 207.242 27.93C207.242 26.618 206.982 25.142 206.463 23.502C205.889 21.698 205.328 20.796 204.782 20.796ZM228.875 33.506C228.875 35.4193 228.192 37.0593 226.825 38.426C225.458 39.7927 223.846 40.476 221.987 40.476C220.812 40.476 219.595 39.902 218.338 38.754C217.327 37.8247 216.438 36.7177 215.673 35.433C215.072 34.4217 214.771 33.7383 214.771 33.383V33.26C215.044 32.5767 215.987 32.235 217.6 32.235C218.283 32.235 218.803 32.3307 219.158 32.522C219.814 32.9047 220.183 33.3557 220.265 33.875C220.347 34.531 220.484 34.9273 220.675 35.064C221.249 35.9387 221.768 36.376 222.233 36.376C222.588 36.376 222.916 36.1437 223.217 35.679C223.545 35.187 223.709 34.613 223.709 33.957C223.709 33.6017 223.641 33.1917 223.504 32.727C223.395 32.3443 222.657 31.7157 221.29 30.841C220.497 30.3217 219.814 29.8433 219.24 29.406C218.666 28.9687 218.201 28.5587 217.846 28.176C216.671 26.8913 216.083 25.3607 216.083 23.584C216.083 21.534 216.684 19.7437 217.887 18.213C219.062 16.655 220.593 15.876 222.479 15.876C224.365 15.876 225.827 16.6003 226.866 18.049C227.577 19.0877 227.932 20.1127 227.932 21.124C227.932 21.206 227.918 21.288 227.891 21.37C227.891 21.452 227.891 21.534 227.891 21.616C228.192 21.9713 228.342 22.518 228.342 23.256C228.342 23.666 228.26 24.0487 228.096 24.404C227.932 24.7593 227.713 25.0737 227.44 25.347C227.167 25.6203 226.866 25.839 226.538 26.003C226.237 26.1397 225.923 26.208 225.595 26.208C224.666 26.208 223.859 25.593 223.176 24.363C222.985 24.0623 222.889 23.625 222.889 23.051C222.889 22.805 222.903 22.4633 222.93 22.026C222.985 21.5613 223.012 21.2333 223.012 21.042C223.012 20.3313 222.752 19.976 222.233 19.976C221.44 19.976 221.044 20.755 221.044 22.313C221.044 23.8983 221.563 25.1693 222.602 26.126C223.067 26.536 223.955 27.0827 225.267 27.766C226.442 28.3673 227.276 28.9823 227.768 29.611C228.506 30.5677 228.875 31.866 228.875 33.506Z" fill="#FAECDD"/>
</svg>
