<svg width="228" height="43" viewBox="0 0 228 43" fill="none" xmlns="http://www.w3.org/2000/svg">
<path d="M51.6932 33.688C51.6659 33.5513 51.6522 33.3873 51.6522 33.196C51.6522 32.786 51.7889 32.417 52.0622 32.089C52.3629 31.7337 52.5132 31.5013 52.5132 31.392L51.7752 4.824C51.7752 4.742 51.7342 4.578 51.6522 4.332C51.5702 4.086 51.5292 3.89467 51.5292 3.758C51.5292 3.29333 51.8846 2.91067 52.5952 2.61C53.1692 2.39133 53.7432 2.282 54.3172 2.282C54.4812 2.282 55.2466 2.364 56.6132 2.528C56.7772 2.528 57.5836 2.241 59.0322 1.667C60.4809 1.06567 61.7792 0.764998 62.9272 0.764998C65.1412 0.764998 66.9999 1.84467 68.5032 4.004C68.9132 4.63266 69.1182 5.439 69.1182 6.423C69.1182 8.77367 67.8199 12.4363 65.2232 17.411C62.5172 22.6317 60.3032 25.242 58.5812 25.242C58.1166 25.242 57.7886 24.996 57.5972 24.504C57.5152 25.1327 57.4742 25.9253 57.4742 26.882C57.4742 27.702 57.4879 28.5903 57.5152 29.547C57.5699 30.4763 57.6519 31.474 57.7612 32.54C57.7612 32.622 57.7749 32.7587 57.8022 32.95C57.8569 33.114 57.9116 33.2917 57.9662 33.483C58.0209 33.6743 58.0619 33.8657 58.0892 34.057C58.1439 34.221 58.1712 34.3577 58.1712 34.467C58.1712 34.9863 57.8159 35.4373 57.1052 35.82C56.7772 35.984 56.3399 36.066 55.7932 36.066C54.8639 36.066 54.0166 35.861 53.2512 35.451C52.3492 34.9863 51.8299 34.3987 51.6932 33.688ZM57.1872 9.088L57.3512 18.518C58.5539 17.5887 59.8522 15.7847 61.2462 13.106C62.6676 10.3727 63.3782 8.29533 63.3782 6.874C63.3782 6.054 63.0502 5.644 62.3942 5.644C61.7382 5.644 60.8909 5.99933 59.8522 6.71C58.8682 7.39333 57.9799 8.186 57.1872 9.088ZM68.9805 35.41C68.8165 35.1367 68.7345 34.8223 68.7345 34.467C68.7345 34.3303 68.7618 34.139 68.8165 33.893C68.8712 33.647 68.9395 33.3873 69.0215 33.114C69.1035 32.8407 69.1718 32.5673 69.2265 32.294C69.2812 32.0207 69.3085 31.7747 69.3085 31.556L69.1445 5.07V2.856C69.2265 2.50066 69.6092 2.21366 70.2925 1.995C70.9758 1.749 71.7002 1.626 72.4655 1.626C73.0395 1.626 73.4905 1.68067 73.8185 1.79C74.1465 1.89933 74.4062 2.04966 74.5975 2.241C74.7888 2.43233 74.9118 2.63733 74.9665 2.856C75.0212 3.07467 75.0485 3.29333 75.0485 3.512C75.0485 3.78533 74.9392 4.291 74.7205 5.029C74.5018 5.767 74.3925 6.32733 74.3925 6.71V31.31C74.3925 31.6653 74.5018 32.212 74.7205 32.95C74.9665 33.606 75.0895 34.0843 75.0895 34.385C75.0895 34.631 75.0212 34.918 74.8845 35.246C74.3378 36.2847 73.3265 36.804 71.8505 36.804C70.4565 36.804 69.4998 36.3393 68.9805 35.41ZM92.7647 35C91.972 34.5353 91.48 34.0707 91.2887 33.606C91.152 33.278 90.9333 32.212 90.6327 30.408C90.004 31.9387 88.815 33.36 87.0657 34.672C85.207 36.066 83.4167 36.763 81.6947 36.763C79.2893 36.763 77.6767 35.328 76.8567 32.458C76.638 31.638 76.5287 30.8863 76.5287 30.203C76.5287 28.235 77.3897 26.513 79.1117 25.037C80.2597 23.9983 82.0773 22.9323 84.5647 21.839C85.9587 21.2103 87.052 20.7047 87.8447 20.322C88.6647 19.912 89.2113 19.6113 89.4847 19.42C89.594 19.01 89.6487 18.559 89.6487 18.067C89.6487 17.2197 89.4027 16.7277 88.9107 16.591C88.446 16.427 87.9677 16.345 87.4757 16.345C86.2183 16.345 84.674 16.96 82.8427 18.19C82.5693 18.354 82.1047 18.8187 81.4487 19.584C80.984 20.158 80.492 20.4587 79.9727 20.486H79.7267C79.0433 20.486 78.442 20.2127 77.9227 19.666C77.4307 19.092 77.1847 18.4497 77.1847 17.739C77.1847 17.329 77.294 16.9327 77.5127 16.55C78.032 15.7027 79.426 14.8007 81.6947 13.844C84.428 12.696 87.2707 12.122 90.2227 12.122C92.054 12.122 93.3113 12.9967 93.9947 14.746C94.4593 15.9487 94.7873 18.149 94.9787 21.347C95.1153 23.315 95.252 25.0097 95.3887 26.431C95.5253 27.8523 95.6893 29.014 95.8807 29.916C95.908 30.2713 96.1403 30.7223 96.5777 31.269C96.9877 31.8157 97.1927 32.3077 97.1927 32.745C97.1927 32.827 97.179 32.909 97.1517 32.991C97.1517 33.073 97.138 33.1687 97.1107 33.278C96.7827 34.6993 95.8943 35.41 94.4457 35.41C93.7897 35.41 93.2293 35.2733 92.7647 35ZM84.0727 26.636C83.4987 27.0733 82.9383 27.5517 82.3917 28.071C81.7083 28.6723 81.3667 29.301 81.3667 29.957C81.3667 30.449 81.517 30.9 81.8177 31.31C82.1457 31.6927 82.542 31.884 83.0067 31.884C84.1547 31.884 85.412 31.105 86.7787 29.547C88.3093 27.7703 89.3753 25.652 89.9767 23.192C89.9767 23.192 89.717 23.315 89.1977 23.561C88.7057 23.807 87.9403 24.1897 86.9017 24.709C86.3003 25.0097 85.7673 25.324 85.3027 25.652C84.838 25.9527 84.428 26.2807 84.0727 26.636ZM105.564 31.802V34.262C105.537 35.2733 105.263 35.984 104.744 36.394C104.252 36.804 103.719 37.009 103.145 37.009C102.134 37.009 101.081 36.476 99.988 35.41C99.6874 35.1367 99.5097 33.0457 99.455 29.137V29.752C99.4824 29.752 99.496 25.1327 99.496 15.894C99.496 15.648 99.4687 15.32 99.414 14.91C99.3594 14.4727 99.332 14.1583 99.332 13.967C99.332 13.4203 99.4687 12.9693 99.742 12.614C100.07 12.122 100.589 11.876 101.3 11.876C102.038 11.876 102.803 12.1083 103.596 12.573C104.416 13.0377 104.908 13.4613 105.072 13.844C105.181 14.09 105.236 14.3633 105.236 14.664C105.236 14.9373 105.127 15.32 104.908 15.812C104.689 16.304 104.58 16.714 104.58 17.042V22.7C106.275 19.092 107.573 16.673 108.475 15.443C109.951 13.557 111.605 12.614 113.436 12.614H113.764C114.939 12.696 115.773 13.7893 116.265 15.894C116.648 17.5067 116.853 19.8573 116.88 22.946V30.326C116.907 30.49 117.099 30.8317 117.454 31.351C117.618 31.597 117.7 31.8703 117.7 32.171V32.376C117.645 32.9773 117.249 33.4967 116.511 33.934C115.773 34.344 114.953 34.549 114.051 34.549C112.712 34.549 111.796 34.1253 111.304 33.278C111.331 32.3213 111.345 31.4193 111.345 30.572C111.372 29.7247 111.386 28.932 111.386 28.194C111.386 23.1373 111.113 20.568 110.566 20.486H110.525C109.842 20.486 108.188 24.258 105.564 31.802ZM131.976 34.016C131.757 34.3167 131.005 34.7267 129.721 35.246C128.409 35.738 127.247 35.984 126.236 35.984H125.826C123.803 35.8747 122.19 34.6857 120.988 32.417C119.922 30.367 119.389 27.8523 119.389 24.873C119.389 21.675 119.99 18.846 121.193 16.386C122.559 13.7073 124.35 12.204 126.564 11.876C126.782 11.8487 126.987 11.835 127.179 11.835C127.397 11.8077 127.616 11.794 127.835 11.794C131.087 11.794 132.878 13.7893 133.206 17.78C133.206 17.862 133.206 17.944 133.206 18.026C133.233 18.108 133.247 18.19 133.247 18.272C133.247 19.912 132.509 21.7433 131.033 23.766C129.256 26.1713 127.015 27.8387 124.309 28.768C124.445 29.3147 124.568 29.7657 124.678 30.121C124.814 30.4763 124.924 30.736 125.006 30.9C125.361 31.5833 125.88 31.925 126.564 31.925C127.192 31.925 127.862 31.679 128.573 31.187C129.174 30.777 129.584 30.3807 129.803 29.998C129.885 29.9707 129.994 29.67 130.131 29.096C130.24 28.522 130.527 28.112 130.992 27.866C131.156 27.784 131.347 27.743 131.566 27.743C132.194 27.743 132.823 28.071 133.452 28.727C133.971 29.301 134.231 29.8477 134.231 30.367C134.231 30.4217 134.217 30.4763 134.19 30.531C134.19 30.5857 134.19 30.6403 134.19 30.695C133.971 31.7337 133.233 32.8407 131.976 34.016ZM125.088 18.6C124.322 20.322 123.94 22.0577 123.94 23.807C123.94 23.971 123.94 24.135 123.94 24.299C123.94 24.4357 123.953 24.586 123.981 24.75C125.265 24.34 126.454 23.3833 127.548 21.88C128.641 20.3767 129.188 19.0373 129.188 17.862C129.188 16.796 128.709 16.263 127.753 16.263C126.659 16.263 125.771 17.042 125.088 18.6ZM140.583 18.805V28.522C140.583 28.522 140.583 28.44 140.583 28.276C140.61 28.112 140.624 27.8797 140.624 27.579C140.596 31.6517 140.241 34.836 139.558 37.132C138.71 40.166 137.303 41.806 135.335 42.052C135.225 42.0793 135.061 42.093 134.843 42.093C134.132 42.093 133.367 41.888 132.547 41.478C131.508 41.0133 130.989 40.4667 130.989 39.838C130.989 39.6193 131.071 39.4007 131.235 39.182C131.453 38.8813 131.809 38.731 132.301 38.731C132.492 38.731 132.642 38.7447 132.752 38.772C132.888 38.7993 133.025 38.813 133.162 38.813C133.271 38.8403 133.38 38.854 133.49 38.854C133.654 38.854 133.79 38.8403 133.9 38.813C134.009 38.7857 134.105 38.7447 134.187 38.69C135.061 38.0613 135.499 33.114 135.499 23.848C135.499 22.7547 135.485 21.5657 135.458 20.281C135.458 18.9963 135.444 17.5887 135.417 16.058C135.417 15.8393 135.335 15.4157 135.171 14.787C135.007 14.1857 134.925 13.721 134.925 13.393C134.925 12.4363 135.69 11.958 137.221 11.958C138.533 11.958 139.489 12.2587 140.091 12.86C140.583 13.352 140.829 14.0627 140.829 14.992C140.829 15.4293 140.788 16.0717 140.706 16.919C140.624 17.739 140.583 18.3677 140.583 18.805ZM136.319 8.022C136.319 7.858 136.291 7.55733 136.237 7.12C136.182 6.68267 136.155 6.35466 136.155 6.136C136.155 5.50733 136.319 5.04266 136.647 4.742C137.084 4.30467 137.658 4.086 138.369 4.086C138.943 4.086 139.489 4.26367 140.009 4.619C140.528 4.97433 140.788 5.439 140.788 6.013C140.788 6.14967 140.76 6.32733 140.706 6.546C140.678 6.73733 140.624 6.94233 140.542 7.161C140.487 7.37967 140.432 7.59833 140.378 7.817C140.35 8.03567 140.337 8.21333 140.337 8.35V8.432V8.514C140.337 8.73267 140.391 8.97867 140.501 9.252C140.637 9.498 140.706 9.703 140.706 9.867C140.706 10.031 140.665 10.2087 140.583 10.4C140.391 10.8373 139.858 11.056 138.984 11.056C138.328 11.056 137.726 10.9193 137.18 10.646C136.442 10.318 136.073 9.88067 136.073 9.334C136.073 9.17 136.114 8.93767 136.196 8.637C136.278 8.33633 136.319 8.13133 136.319 8.022ZM158.909 35C158.117 34.5353 157.625 34.0707 157.433 33.606C157.297 33.278 157.078 32.212 156.777 30.408C156.149 31.9387 154.96 33.36 153.21 34.672C151.352 36.066 149.561 36.763 147.839 36.763C145.434 36.763 143.821 35.328 143.001 32.458C142.783 31.638 142.673 30.8863 142.673 30.203C142.673 28.235 143.534 26.513 145.256 25.037C146.404 23.9983 148.222 22.9323 150.709 21.839C152.103 21.2103 153.197 20.7047 153.989 20.322C154.809 19.912 155.356 19.6113 155.629 19.42C155.739 19.01 155.793 18.559 155.793 18.067C155.793 17.2197 155.547 16.7277 155.055 16.591C154.591 16.427 154.112 16.345 153.62 16.345C152.363 16.345 150.819 16.96 148.987 18.19C148.714 18.354 148.249 18.8187 147.593 19.584C147.129 20.158 146.637 20.4587 146.117 20.486H145.871C145.188 20.486 144.587 20.2127 144.067 19.666C143.575 19.092 143.329 18.4497 143.329 17.739C143.329 17.329 143.439 16.9327 143.657 16.55C144.177 15.7027 145.571 14.8007 147.839 13.844C150.573 12.696 153.415 12.122 156.367 12.122C158.199 12.122 159.456 12.9967 160.139 14.746C160.604 15.9487 160.932 18.149 161.123 21.347C161.26 23.315 161.397 25.0097 161.533 26.431C161.67 27.8523 161.834 29.014 162.025 29.916C162.053 30.2713 162.285 30.7223 162.722 31.269C163.132 31.8157 163.337 32.3077 163.337 32.745C163.337 32.827 163.324 32.909 163.296 32.991C163.296 33.073 163.283 33.1687 163.255 33.278C162.927 34.6993 162.039 35.41 160.59 35.41C159.934 35.41 159.374 35.2733 158.909 35ZM150.217 26.636C149.643 27.0733 149.083 27.5517 148.536 28.071C147.853 28.6723 147.511 29.301 147.511 29.957C147.511 30.449 147.662 30.9 147.962 31.31C148.29 31.6927 148.687 31.884 149.151 31.884C150.299 31.884 151.557 31.105 152.923 29.547C154.454 27.7703 155.52 25.652 156.121 23.192C156.121 23.192 155.862 23.315 155.342 23.561C154.85 23.807 154.085 24.1897 153.046 24.709C152.445 25.0097 151.912 25.324 151.447 25.652C150.983 25.9527 150.573 26.2807 150.217 26.636Z" fill="#89D27C"/>
<path d="M166.051 32.294C166.051 31.9933 166.201 31.6653 166.502 31.31C166.802 30.9547 166.953 30.6267 166.953 30.326L165.887 6.136C165.887 5.972 165.832 5.78066 165.723 5.562C165.641 5.316 165.545 5.08366 165.436 4.865C165.354 4.64633 165.272 4.44133 165.19 4.25C165.108 4.05867 165.067 3.89467 165.067 3.758C165.067 3.23867 165.422 2.66467 166.133 2.036C166.324 1.89933 166.761 1.831 167.445 1.831C169.877 1.831 171.408 2.39133 172.037 3.512C172.201 3.81267 172.283 4.09967 172.283 4.373C172.283 4.50966 172.242 4.67367 172.16 4.865C172.078 5.05633 171.996 5.26133 171.914 5.48C171.832 5.69867 171.75 5.91733 171.668 6.136C171.586 6.35466 171.545 6.546 171.545 6.71V16.714L178.433 4.496C178.569 4.14067 178.692 3.78533 178.802 3.43C178.938 3.07466 179.075 2.71933 179.212 2.364C179.567 1.626 180.196 1.257 181.098 1.257C181.945 1.257 182.833 1.57133 183.763 2.2C184.665 2.82867 185.116 3.49833 185.116 4.209C185.116 4.26367 185.102 4.31833 185.075 4.373C185.075 4.40033 185.075 4.44133 185.075 4.496C184.938 5.12467 184.678 5.53467 184.296 5.726C183.804 5.99933 183.489 6.24533 183.353 6.464L175.071 20.896L184.583 28.112C185.157 28.4673 185.744 28.8363 186.346 29.219C186.974 29.6017 187.371 30.0527 187.535 30.572C187.617 30.8727 187.658 31.187 187.658 31.515C187.658 32.663 187.207 33.7427 186.305 34.754C185.403 35.738 184.432 36.23 183.394 36.23C183.011 36.23 182.697 36.1753 182.451 36.066C181.467 35.6833 180.811 34.877 180.483 33.647C180.1 32.1983 179.663 31.2827 179.171 30.9L171.791 25.16L172.283 30.08C172.337 30.5173 172.474 31.0503 172.693 31.679C172.939 32.335 173.062 32.827 173.062 33.155C173.062 33.729 172.788 34.2757 172.242 34.795C171.722 35.287 171.08 35.533 170.315 35.533C169.44 35.533 168.538 35.205 167.609 34.549C166.57 33.8383 166.051 33.0867 166.051 32.294ZM188.138 8.678C188.138 8.48667 188.22 8.227 188.384 7.899C188.548 7.54367 188.643 7.25667 188.671 7.038C188.671 6.98333 188.671 6.915 188.671 6.833C188.698 6.72366 188.712 6.60066 188.712 6.464C188.712 6.32733 188.698 6.177 188.671 6.013C188.671 5.82167 188.671 5.61666 188.671 5.398V5.152C188.671 4.578 188.807 4.19533 189.081 4.004C189.518 3.676 190.297 3.512 191.418 3.512C192.648 3.512 193.509 3.758 194.001 4.25C194.083 4.332 194.124 4.46867 194.124 4.66C194.124 4.906 194.042 5.32967 193.878 5.931C193.659 6.69633 193.536 7.202 193.509 7.448V7.407C193.563 7.407 193.591 8.022 193.591 9.252C193.591 9.826 193.413 10.2087 193.058 10.4C192.73 10.564 192.306 10.646 191.787 10.646C191.103 10.646 190.352 10.4957 189.532 10.195C188.602 9.83967 188.138 9.334 188.138 8.678ZM193.509 35.738C192.825 36.1753 192.087 36.394 191.295 36.394C190.283 36.394 189.545 36.0387 189.081 35.328C188.507 34.426 188.22 31.802 188.22 27.456C188.22 26.9367 188.22 26.2807 188.22 25.488C188.22 24.668 188.233 23.7113 188.261 22.618C188.288 21.4973 188.302 20.5407 188.302 19.748C188.329 18.9553 188.343 18.2993 188.343 17.78C188.343 17.5887 188.329 17.3563 188.302 17.083C188.274 16.8097 188.247 16.5363 188.22 16.263C188.192 15.9897 188.165 15.7437 188.138 15.525C188.11 15.279 188.097 15.0877 188.097 14.951C188.097 14.049 188.425 13.27 189.081 12.614C189.354 12.3407 189.86 12.204 190.598 12.204C191.336 12.204 192.074 12.327 192.812 12.573C193.55 12.7917 194.014 13.0513 194.206 13.352C194.424 13.6527 194.534 13.9533 194.534 14.254C194.534 14.664 194.315 15.2653 193.878 16.058C193.468 16.8507 193.263 17.5067 193.263 18.026V30.08C193.263 30.572 193.413 31.351 193.714 32.417C194.014 33.4557 194.165 34.139 194.165 34.467C194.165 35.041 193.946 35.4647 193.509 35.738ZM206.305 14.828V9.539C206.305 9.10167 206.127 8.54133 205.772 7.858C205.417 7.17466 205.239 6.65533 205.239 6.3C205.239 6.08133 205.307 5.808 205.444 5.48C206.018 4.25 207.139 3.635 208.806 3.635C210.173 3.635 211.02 4.127 211.348 5.111C211.457 5.41166 211.512 5.726 211.512 6.054C211.512 6.35466 211.416 6.76466 211.225 7.284C211.061 7.776 210.979 8.19966 210.979 8.555V31.925C210.979 32.2257 211.088 32.5947 211.307 33.032C211.526 33.442 211.635 33.7837 211.635 34.057C211.635 34.303 211.58 34.5353 211.471 34.754C211.143 35.5193 210.132 35.902 208.437 35.902C207.371 35.902 206.66 35.6833 206.305 35.246C206.168 35.0547 206.1 34.8497 206.1 34.631C206.1 34.4397 206.168 34.139 206.305 33.729C206.442 33.319 206.524 33.0047 206.551 32.786C205.266 34.59 203.79 35.492 202.123 35.492C199.854 35.492 198.201 34.1937 197.162 31.597C196.369 29.6017 195.973 27.046 195.973 23.93C195.973 21.0327 196.588 18.395 197.818 16.017C199.185 13.4203 200.866 12.122 202.861 12.122C203.954 12.122 205.102 13.024 206.305 14.828ZM203.353 16.796C202.697 16.796 202.191 17.6297 201.836 19.297C201.535 20.7183 201.385 22.2627 201.385 23.93C201.385 24.0667 201.385 24.258 201.385 24.504C201.385 24.75 201.371 25.0507 201.344 25.406V26.923C201.344 30.0117 202.014 31.556 203.353 31.556C203.954 31.556 204.528 30.6677 205.075 28.891C205.567 27.251 205.813 25.5973 205.813 23.93C205.813 22.618 205.553 21.142 205.034 19.502C204.46 17.698 203.9 16.796 203.353 16.796ZM227.446 29.506C227.446 31.4193 226.763 33.0593 225.396 34.426C224.029 35.7927 222.417 36.476 220.558 36.476C219.383 36.476 218.166 35.902 216.909 34.754C215.898 33.8247 215.009 32.7177 214.244 31.433C213.643 30.4217 213.342 29.7383 213.342 29.383V29.26C213.615 28.5767 214.558 28.235 216.171 28.235C216.854 28.235 217.374 28.3307 217.729 28.522C218.385 28.9047 218.754 29.3557 218.836 29.875C218.918 30.531 219.055 30.9273 219.246 31.064C219.82 31.9387 220.339 32.376 220.804 32.376C221.159 32.376 221.487 32.1437 221.788 31.679C222.116 31.187 222.28 30.613 222.28 29.957C222.28 29.6017 222.212 29.1917 222.075 28.727C221.966 28.3443 221.228 27.7157 219.861 26.841C219.068 26.3217 218.385 25.8433 217.811 25.406C217.237 24.9687 216.772 24.5587 216.417 24.176C215.242 22.8913 214.654 21.3607 214.654 19.584C214.654 17.534 215.255 15.7437 216.458 14.213C217.633 12.655 219.164 11.876 221.05 11.876C222.936 11.876 224.398 12.6003 225.437 14.049C226.148 15.0877 226.503 16.1127 226.503 17.124C226.503 17.206 226.489 17.288 226.462 17.37C226.462 17.452 226.462 17.534 226.462 17.616C226.763 17.9713 226.913 18.518 226.913 19.256C226.913 19.666 226.831 20.0487 226.667 20.404C226.503 20.7593 226.284 21.0737 226.011 21.347C225.738 21.6203 225.437 21.839 225.109 22.003C224.808 22.1397 224.494 22.208 224.166 22.208C223.237 22.208 222.43 21.593 221.747 20.363C221.556 20.0623 221.46 19.625 221.46 19.051C221.46 18.805 221.474 18.4633 221.501 18.026C221.556 17.5613 221.583 17.2333 221.583 17.042C221.583 16.3313 221.323 15.976 220.804 15.976C220.011 15.976 219.615 16.755 219.615 18.313C219.615 19.8983 220.134 21.1693 221.173 22.126C221.638 22.536 222.526 23.0827 223.838 23.766C225.013 24.3673 225.847 24.9823 226.339 25.611C227.077 26.5677 227.446 27.866 227.446 29.506Z" fill="#F2C18D"/>
<circle cx="12" cy="22" r="12" fill="#A5DD9B"/>
<circle cx="28" cy="22" r="12" fill="#F2C18D"/>
</svg>
